<svg width="192" height="269" viewBox="0 0 192 269" fill="none" xmlns="http://www.w3.org/2000/svg">
<rect x="2.5" y="17.6273" width="187" height="248.673" rx="7.5" fill="white" stroke="#17181F" stroke-width="5" stroke-linecap="round"/>
<rect x="52.5371" y="2.5" width="88.0909" height="27.5818" rx="7.5" fill="#FC769F" stroke="#17181F" stroke-width="5"/>
<line x1="65.9961" y1="68.9818" x2="165.56" y2="68.9818" stroke="#17181F" stroke-width="4" stroke-linecap="round"/>
<line x1="30.2411" y1="77.4625" x2="45.9227" y2="61.6817" stroke="#FC769F" stroke-width="4" stroke-linecap="round"/>
<line x1="29.7497" y1="77.8466" x2="25.5963" y2="73.6933" stroke="#FC769F" stroke-width="4" stroke-linecap="round"/>
<line x1="65.9961" y1="116.691" x2="165.56" y2="116.691" stroke="#17181F" stroke-width="4" stroke-linecap="round"/>
<line x1="30.2411" y1="125.172" x2="45.9227" y2="109.391" stroke="#FC769F" stroke-width="4" stroke-linecap="round"/>
<line x1="29.7497" y1="125.556" x2="25.5963" y2="121.402" stroke="#FC769F" stroke-width="4" stroke-linecap="round"/>
<line x1="65.9961" y1="164.4" x2="165.56" y2="164.4" stroke="#17181F" stroke-width="4" stroke-linecap="round"/>
<line x1="30.2411" y1="172.881" x2="45.9227" y2="157.1" stroke="#FC769F" stroke-width="4" stroke-linecap="round"/>
<line x1="29.7497" y1="173.265" x2="25.5963" y2="169.111" stroke="#FC769F" stroke-width="4" stroke-linecap="round"/>
<line x1="65.998" y1="210.945" x2="165.562" y2="210.945" stroke="#17181F" stroke-width="4" stroke-linecap="round"/>
<line x1="27.9169" y1="220.59" x2="43.5985" y2="204.809" stroke="#17181F" stroke-width="4" stroke-linecap="round"/>
<line x1="43.718" y1="220.018" x2="28.0179" y2="205.3" stroke="#17181F" stroke-width="4" stroke-linecap="round"/>
</svg>
