<svg width="943" height="269" viewBox="0 0 943 269" fill="none" xmlns="http://www.w3.org/2000/svg">
<rect x="2.5" y="17.6273" width="187" height="248.673" rx="7.5" fill="white" stroke="#17181F" stroke-width="5" stroke-linecap="round"/>
<rect x="52.5371" y="2.5" width="88.0909" height="27.5818" rx="7.5" fill="#FC769F" stroke="#17181F" stroke-width="5"/>
<line x1="65.9961" y1="68.9818" x2="165.56" y2="68.9818" stroke="#17181F" stroke-width="4" stroke-linecap="round"/>
<line x1="30.2411" y1="77.4625" x2="45.9227" y2="61.6817" stroke="#FC769F" stroke-width="4" stroke-linecap="round"/>
<line x1="29.7497" y1="77.8466" x2="25.5963" y2="73.6933" stroke="#FC769F" stroke-width="4" stroke-linecap="round"/>
<line x1="65.9961" y1="116.691" x2="165.56" y2="116.691" stroke="#17181F" stroke-width="4" stroke-linecap="round"/>
<line x1="30.2411" y1="125.172" x2="45.9227" y2="109.391" stroke="#FC769F" stroke-width="4" stroke-linecap="round"/>
<line x1="29.7497" y1="125.556" x2="25.5963" y2="121.402" stroke="#FC769F" stroke-width="4" stroke-linecap="round"/>
<line x1="65.9961" y1="164.4" x2="165.56" y2="164.4" stroke="#17181F" stroke-width="4" stroke-linecap="round"/>
<line x1="30.2411" y1="172.881" x2="45.9227" y2="157.1" stroke="#FC769F" stroke-width="4" stroke-linecap="round"/>
<line x1="29.7497" y1="173.265" x2="25.5963" y2="169.111" stroke="#FC769F" stroke-width="4" stroke-linecap="round"/>
<line x1="65.998" y1="210.945" x2="165.562" y2="210.945" stroke="#17181F" stroke-width="4" stroke-linecap="round"/>
<line x1="27.9169" y1="220.59" x2="43.5985" y2="204.809" stroke="#17181F" stroke-width="4" stroke-linecap="round"/>
<line x1="43.718" y1="220.018" x2="28.0179" y2="205.3" stroke="#17181F" stroke-width="4" stroke-linecap="round"/>
<path d="M428.321 149.505C428.321 173.707 423.667 193.94 414.358 210.205C405.148 226.372 391.774 238.571 374.235 246.801C356.696 254.934 335.581 259 310.89 259H250.043V44.126H317.503C340.039 44.126 359.587 48.1432 376.146 56.1777C392.704 64.1143 405.54 75.9211 414.652 91.5981C423.765 107.177 428.321 126.48 428.321 149.505ZM380.996 150.681C380.996 134.808 378.644 121.777 373.941 111.586C369.336 101.298 362.477 93.7048 353.365 88.8057C344.35 83.9066 333.181 81.457 319.855 81.457H295.604V221.375H315.152C337.394 221.375 353.904 215.447 364.682 203.591C375.558 191.736 380.996 174.099 380.996 150.681ZM618.65 176.548C618.65 190.266 616.789 202.416 613.065 212.998C609.44 223.58 604.1 232.545 597.045 239.894C590.089 247.144 581.662 252.631 571.766 256.354C561.968 260.078 550.896 261.939 538.55 261.939C526.988 261.939 516.357 260.078 506.657 256.354C497.055 252.631 488.678 247.144 481.525 239.894C474.47 232.545 468.983 223.58 465.064 212.998C461.243 202.416 459.332 190.266 459.332 176.548C459.332 158.324 462.565 142.892 469.032 130.252C475.499 117.612 484.709 108.01 496.663 101.445C508.617 94.8805 522.873 91.5981 539.432 91.5981C554.815 91.5981 568.435 94.8805 580.291 101.445C592.244 108.01 601.602 117.612 608.362 130.252C615.221 142.892 618.65 158.324 618.65 176.548ZM505.041 176.548C505.041 187.326 506.216 196.39 508.568 203.738C510.919 211.087 514.594 216.623 519.591 220.346C524.588 224.069 531.104 225.931 539.138 225.931C547.075 225.931 553.493 224.069 558.392 220.346C563.389 216.623 567.014 211.087 569.268 203.738C571.619 196.39 572.795 187.326 572.795 176.548C572.795 165.672 571.619 156.658 569.268 149.505C567.014 142.255 563.389 136.817 558.392 133.191C553.395 129.566 546.879 127.753 538.844 127.753C526.988 127.753 518.366 131.82 512.977 139.952C507.686 148.085 505.041 160.283 505.041 176.548ZM760.479 97.918V259H736.082V97.918H760.479ZM748.574 37.6592C752.591 37.6592 756.021 38.9819 758.862 41.6274C761.802 44.175 763.271 48.1922 763.271 53.6792C763.271 59.0682 761.802 63.0854 758.862 65.731C756.021 68.3765 752.591 69.6992 748.574 69.6992C744.361 69.6992 740.834 68.3765 737.992 65.731C735.249 63.0854 733.877 59.0682 733.877 53.6792C733.877 48.1922 735.249 44.175 737.992 41.6274C740.834 38.9819 744.361 37.6592 748.574 37.6592ZM864.242 241.951C868.259 241.951 872.374 241.608 876.587 240.922C880.801 240.236 884.23 239.404 886.875 238.424V257.383C884.034 258.657 880.066 259.735 874.971 260.617C869.974 261.499 865.075 261.939 860.273 261.939C851.749 261.939 844.008 260.47 837.052 257.53C830.095 254.493 824.51 249.398 820.297 242.245C816.182 235.092 814.124 225.196 814.124 212.557V117.024H791.196V105.12L814.271 95.5664L823.971 60.5869H838.668V97.918H885.847V117.024H838.668V211.822C838.668 221.914 840.971 229.458 845.576 234.456C850.279 239.453 856.501 241.951 864.242 241.951Z" fill="white"/>
<circle cx="748.5" cy="54.5" r="17.5" fill="#FC769F"/>
</svg>
